<?xml version="1.0" standalone="no"?>
<!DOCTYPE svg PUBLIC "-//W3C//DTD SVG 1.1//EN" "http://www.w3.org/Graphics/SVG/1.1/DTD/svg11.dtd" >
<svg xmlns="http://www.w3.org/2000/svg">
<metadata></metadata>
<defs>
<font id="etelka_narrow_text_probold" horiz-adv-x="1028" >
<font-face units-per-em="2048" ascent="1638" descent="-410" />
<missing-glyph horiz-adv-x="421" />
<glyph unicode="&#xfb01;" horiz-adv-x="1007" d="M2 776v271h135v51q0 92 19.5 160t54.5 112t88.5 71t116 37.5t143.5 10.5q172 0 324 -62l-56 -241q-101 37 -229 37q-107 0 -158 -31t-51 -115v-30h510v-1047h-254v776h-256v-776h-252v776h-135z" />
<glyph unicode="&#xfb02;" horiz-adv-x="1015" d="M2 776v271h135v51q0 115 27 193t81 120.5t122 60t163 17.5q177 0 369 -62v-1122q0 -161 55 -256l-227 -98q-82 124 -82 344v911q-66 17 -121 17q-71 0 -103 -31.5t-32 -114.5v-30h184v-271h-184v-776h-252v776h-135z" />
<glyph unicode="&#xfb03;" horiz-adv-x="1515" d="M2 776v271h135v51q0 91 18 160.5t48 112.5t74 70t91.5 37.5t104.5 10.5q166 0 299 -72q101 72 297 72q170 0 322 -62l-54 -241q-105 37 -229 37q-107 0 -158 -31t-51 -115v-30h508v-1047h-252v776h-256v-776h-254v776h-256v-776h-252v776h-135zM389 1047h256v51 q0 54 10 102q-71 23 -131 23q-72 0 -103.5 -32t-31.5 -114v-30z" />
<glyph unicode="&#xfb04;" horiz-adv-x="1525" d="M2 776v271h135v51q0 91 18 160.5t48 112.5t74 70t91.5 37.5t104.5 10.5q146 0 295 -68q92 68 270 68q177 0 369 -62v-1122q0 -162 57 -256l-229 -98q-80 125 -80 344v911q-70 17 -123 17q-69 0 -101 -32t-32 -114v-30h184v-271h-184v-776h-254v776h-256v-776h-252v776 h-135zM389 1047h256v51q0 54 10 102q-71 23 -131 23q-75 0 -105 -35t-30 -121v-20z" />
<glyph horiz-adv-x="2048" />
<glyph horiz-adv-x="2048" />
<glyph unicode="&#xd;" horiz-adv-x="2048" />
<glyph unicode=" "  horiz-adv-x="421" />
<glyph unicode="&#x09;" horiz-adv-x="421" />
<glyph unicode="&#xa0;" horiz-adv-x="421" />
<glyph unicode="!" horiz-adv-x="544" d="M121 1427h301l-60 -946h-180zM125 168q0 104 30.5 136t116.5 32q90 0 122 -32t32 -136q0 -113 -32 -147.5t-122 -34.5q-87 0 -117 34.5t-30 147.5z" />
<glyph unicode="&#x22;" horiz-adv-x="659" d="M74 1427h211l-31 -501h-162zM379 1427h207l-33 -501h-160z" />
<glyph unicode="#" horiz-adv-x="1210" d="M37 332l14 248h199l16 290h-200l12 250h201l16 310h231l-16 -310h205l16 310h232l-17 -310h215l-12 -250h-215l-16 -290h217l-13 -248h-217l-18 -332h-232l19 332h-205l-18 -332h-230l17 332h-201zM483 580h203l16 290h-204z" />
<glyph unicode="$" horiz-adv-x="1017" d="M86 952q0 205 82.5 312.5t251.5 134.5v291h168v-281q191 -3 315 -59l-51 -271q-111 39 -264 45v-278q168 -33 252 -129t84 -271q0 -208 -80 -307t-256 -121v-299h-168v291q-192 3 -322 60l54 272q104 -40 268 -47v289q-165 28 -249.5 113.5t-84.5 254.5zM328 993 q0 -53 19 -78t73 -38v237q-50 -12 -71 -41t-21 -80zM588 303q48 12 70 41t22 82q0 55 -18.5 83t-73.5 42v-248z" />
<glyph unicode="%" horiz-adv-x="1652" d="M45 999q0 183 33 283.5t100.5 140t188.5 39.5q91 0 149 -20.5t98 -73.5t57 -141.5t17 -227.5q0 -187 -32.5 -292t-100.5 -148t-188 -43t-188 43t-101 148t-33 292zM262 997q0 -115 10 -170t30.5 -73.5t64.5 -18.5t64.5 19t29 72.5t8.5 170.5q0 113 -8.5 164t-28.5 67.5 t-65 16.5q-44 0 -64.5 -16t-30.5 -68.5t-10 -163.5zM344 0l729 1427h230l-732 -1427h-227zM965 453q0 185 32 285.5t99.5 140t189.5 39.5q121 0 188.5 -39.5t100.5 -140.5t33 -285q0 -186 -33 -290.5t-101 -148t-188 -43.5q-121 0 -189 43.5t-100 147.5t-32 291zM1182 453 q0 -115 9.5 -170t30 -74t64.5 -19q43 0 63 19t28.5 73.5t8.5 170.5q0 112 -8.5 163t-28 67.5t-63.5 16.5t-64.5 -16.5t-30 -68t-9.5 -162.5z" />
<glyph unicode="&#x26;" horiz-adv-x="1333" d="M70 371q0 170 76 260.5t237 99.5q-75 7 -123.5 32.5t-73.5 71.5t-34 100t-9 134q0 103 18 172t63.5 121t127 76t205.5 24q122 0 202 -20t128.5 -65t68 -111t19.5 -166q0 -156 -63 -239t-212 -97q105 -9 258 -219q52 120 52 262h272q0 -264 -160 -494q64 -104 183 -313 h-304q-65 122 -67 125q-100 -78 -200.5 -116t-219.5 -38q-250 0 -347 87.5t-97 312.5zM352 418q0 -103 33 -140.5t129 -37.5q84 0 150 24t131 80q-163 268 -275 268q-89 0 -128.5 -45.5t-39.5 -148.5zM410 1034q0 -92 31 -129t108 -37q80 0 119 37.5t39 126.5 q0 92 -33.5 124t-114.5 32q-83 0 -116 -31.5t-33 -122.5z" />
<glyph unicode="'" horiz-adv-x="358" d="M74 1427h211l-31 -501h-162z" />
<glyph unicode="(" horiz-adv-x="534" d="M111 510q0 871 376 1069l115 -231q-72 -49 -118.5 -132t-76.5 -259.5t-30 -446.5t30 -446.5t76.5 -259.5t118.5 -132l-115 -231q-376 198 -376 1069z" />
<glyph unicode=")" horiz-adv-x="534" d="M-68 -328q54 36 92 91t70 149t48 243.5t16 354.5q0 204 -16 353t-47.5 243.5t-70.5 150t-92 91.5l115 231q66 -35 121 -92t103.5 -146.5t81.5 -206t52 -275.5t19 -349t-19 -349t-52 -275.5t-81.5 -206t-103.5 -146.5t-121 -92z" />
<glyph unicode="*" horiz-adv-x="872" d="M49 940v254h209l-106 227l180 127l104 -227l103 227l178 -127l-107 -227h211v-254h-211l107 -227l-180 -125l-101 223l-104 -223l-180 127l106 225h-209z" />
<glyph unicode="+" horiz-adv-x="923" d="M59 594v301h281v352h240v-352h282v-301h-282v-350h-240v350h-281z" />
<glyph unicode="," horiz-adv-x="489" d="M4 -326l129 541h289l-193 -541h-225z" />
<glyph unicode="-" horiz-adv-x="520" d="M45 432v301h430v-301h-430z" />
<glyph unicode="." horiz-adv-x="487" d="M94 168q0 104 31 136t119 32q89 0 119 -31.5t30 -136.5q0 -114 -30 -148t-119 -34q-60 0 -90 13t-45 52t-15 117z" />
<glyph unicode="/" horiz-adv-x="798" d="M4 0l584 1427h268l-586 -1427h-266z" />
<glyph unicode="0" d="M72 733q0 172 18.5 297.5t53 208.5t90 132.5t122.5 70t158 20.5t158 -20.5t122 -70t89 -132.5t52.5 -208.5t18.5 -297.5q0 -218 -27 -366.5t-84.5 -235.5t-136.5 -123.5t-192 -36.5q-90 0 -158 23t-123 76t-89.5 140.5t-53 217.5t-18.5 305zM338 733q0 -104 2.5 -172.5 t10.5 -122.5t19.5 -84t32.5 -49t46.5 -25t64.5 -6q40 0 66 6t47.5 25.5t33 48.5t19 84t10 122.5t2.5 172.5q0 102 -2.5 167t-10.5 116t-19 77.5t-33 43.5t-47 21.5t-66 4.5q-79 0 -113 -28t-48.5 -115.5t-14.5 -286.5z" />
<glyph unicode="1" d="M119 1221l586 272v-1493h-263v1071l-254 -129z" />
<glyph unicode="2" d="M66 0v268q115 107 180.5 168.5t135 130.5t103 103.5t68.5 79t46.5 67.5t23 57.5t13 59.5t1.5 65q0 96 -37.5 131t-136.5 35q-77 0 -162.5 -16t-142.5 -39l-56 281q71 32 175 51.5t212 19.5q113 0 189 -18.5t132.5 -65.5t82 -131.5t25.5 -212.5q0 -78 -6 -133.5 t-27.5 -113.5t-52 -104.5t-90 -110t-129.5 -126.5t-183 -157h492v-289h-856z" />
<glyph unicode="3" d="M72 20l49 293q46 -18 128.5 -28.5t147.5 -10.5q102 0 152.5 15.5t69 48t18.5 98.5q0 95 -34.5 129.5t-121.5 34.5h-176v283h172q82 0 113 28.5t31 112.5q0 80 -43.5 108.5t-178.5 28.5q-64 0 -146 -10.5t-128 -28.5l-49 289q183 51 385 51q170 0 265.5 -36.5t136 -115.5 t40.5 -218q0 -80 -10 -135t-36 -101t-75.5 -71.5t-124.5 -32.5q153 -9 211 -99t58 -270q0 -228 -106.5 -320t-358.5 -92q-92 0 -202 13.5t-187 35.5z" />
<glyph unicode="4" horiz-adv-x="1024" d="M12 340v113q101 226 240 510.5t240 463.5h337v-811h148v-276h-148v-340h-251v340h-566zM328 616h250v506q-62 -105 -135 -254.5t-115 -251.5z" />
<glyph unicode="5" d="M94 20l49 293q43 -18 124.5 -28.5t146.5 -10.5q141 0 183 31t42 135q0 58 -7 88.5t-31 52.5t-66.5 28.5t-118.5 6.5q-148 0 -271 -20v831h740v-288h-492v-246q58 6 115 6q122 0 202 -23.5t128.5 -78.5t68 -137t19.5 -207q0 -142 -22.5 -233t-77.5 -147.5t-138 -79 t-213 -22.5q-85 0 -201 14t-180 35z" />
<glyph unicode="6" d="M80 725q0 178 17.5 301.5t53.5 209.5t99.5 135t146.5 70t203 21q79 0 170.5 -15t157.5 -38l-51 -291q-93 41 -277 41q-60 0 -98.5 -10t-70.5 -38.5t-47.5 -84t-18.5 -143.5q88 16 176 16q124 0 205 -23.5t130.5 -78.5t70 -137t20.5 -207q0 -143 -22 -234t-76 -147 t-135 -78.5t-208 -22.5t-209.5 35.5t-137 123.5t-77 231t-22.5 364zM360 606q2 -87 9 -145.5t19 -96t33 -57t44.5 -26.5t60.5 -7q98 0 131 36.5t33 133.5q0 102 -32.5 138t-118.5 36q-93 0 -179 -12z" />
<glyph unicode="7" horiz-adv-x="1030" d="M92 1139v288h909v-94q-103 -204 -256.5 -623t-230.5 -710h-299q96 326 218 655.5t216 483.5h-557z" />
<glyph unicode="8" d="M74 383q0 71 7 123.5t24.5 99t47 76t76.5 48t111 22.5q-75 7 -124.5 32.5t-75.5 71.5t-36 101t-10 135q0 102 17.5 167.5t64 113.5t128.5 68.5t210 20.5t210 -20.5t128.5 -68.5t64 -113.5t17.5 -167.5q0 -80 -10 -135t-36 -101t-75.5 -71.5t-124.5 -32.5q64 -4 111 -22.5 t76.5 -48t47 -76t24.5 -99t7 -123.5q0 -153 -40 -241t-135 -129.5t-263 -41.5h-2q-248 0 -344 92.5t-96 319.5zM348 418q0 -102 36 -140t132 -38q95 0 129.5 38t34.5 140q0 107 -35.5 151.5t-128.5 44.5q-95 0 -131.5 -44.5t-36.5 -151.5zM362 1034q0 -91 35.5 -127.5 t118.5 -36.5q80 0 116 37t36 127q0 91 -33.5 122.5t-118.5 31.5q-86 0 -120 -31.5t-34 -122.5z" />
<glyph unicode="9" d="M78 975q0 189 42 293.5t135 149t261 44.5q92 0 158 -10t117 -34t82.5 -59.5t51.5 -92.5t28 -127t8 -168q0 -278 -97 -510.5t-276 -460.5h-324q250 320 340 541q-40 -4 -102 -4q-124 0 -204 22.5t-130 75.5t-70 134t-20 206zM352 985q0 -107 33.5 -138.5t151.5 -31.5 q75 0 135 8q8 49 8 117q0 97 -14.5 143t-47.5 62t-102 16q-99 0 -131.5 -37.5t-32.5 -138.5z" />
<glyph unicode=":" horiz-adv-x="487" d="M94 168q0 104 31 136t119 32q89 0 119 -31.5t30 -136.5q0 -114 -30 -148t-119 -34q-60 0 -90 13t-45 52t-15 117zM94 899q0 104 31 135t119 31q89 0 119 -31t30 -135q0 -114 -30 -148t-119 -34q-60 0 -90 13t-45 52t-15 117z" />
<glyph unicode=";" horiz-adv-x="489" d="M4 -326l129 541h289l-193 -541h-225zM94 899q0 104 31 135t119 31q89 0 119 -31t30 -135q0 -114 -30 -148t-119 -34q-60 0 -90 13t-45 52t-15 117z" />
<glyph unicode="&#x3c;" horiz-adv-x="921" d="M117 668v151l594 576l131 -228l-396 -419l396 -429l-129 -229z" />
<glyph unicode="=" horiz-adv-x="923" d="M59 289v301h803v-301h-803zM59 901v301h803v-301h-803z" />
<glyph unicode="&#x3e;" horiz-adv-x="921" d="M117 319l397 420l-397 426l129 232l598 -578v-151l-594 -576z" />
<glyph unicode="?" horiz-adv-x="831" d="M29 1411q60 22 150.5 36.5t164.5 14.5q245 0 352 -101.5t107 -322.5q0 -154 -71.5 -291t-205.5 -290h-252q124 182 175 299.5t51 269.5q0 133 -181 133q-159 0 -239 -39zM254 168q0 103 31 134.5t118 31.5q90 0 122 -31.5t32 -134.5q0 -78 -15.5 -116.5t-46 -51 t-92.5 -12.5q-60 0 -89.5 12.5t-44.5 51t-15 116.5z" />
<glyph unicode="@" horiz-adv-x="1544" d="M82 545q0 149 19 265t58 198t91 138t125 88.5t153 46t181 13.5q82 0 139.5 -9t107 -32.5t80 -64t52.5 -105.5t31 -154t9 -212q0 -117 -6.5 -197t-25 -140t-44 -94.5t-71 -55.5t-98.5 -28t-133 -7q-196 0 -264 70.5t-68 275.5q0 141 29.5 214t91 99.5t178.5 26.5 q94 0 184 -21q-3 107 -39.5 143.5t-152.5 36.5q-83 0 -139 -6.5t-104.5 -26t-76.5 -52.5t-48.5 -88.5t-28 -130.5t-7.5 -183q0 -113 8 -191t29.5 -138.5t54 -96.5t87.5 -59t122 -31t166 -8q98 0 167 11t123.5 38.5t88 70.5t55.5 112t30.5 156.5t8.5 211.5q0 239 -33 354h218 q32 -144 32 -365q0 -243 -38.5 -404.5t-125 -259.5t-212 -138.5t-312.5 -40.5q-153 0 -261.5 22t-193.5 74t-135.5 141.5t-76 219.5t-25.5 313zM655 549q0 -75 24.5 -99t102.5 -24q67 0 93 28.5t26 112.5v90q-68 11 -127 11q-70 0 -94.5 -22t-24.5 -97z" />
<glyph unicode="A" horiz-adv-x="1128" d="M-33 0q68 290 186 702.5t220 724.5h407q83 -341 197 -746.5t205 -680.5h-293q-49 152 -96 315h-469q-45 -171 -74 -315h-283zM389 600h328q-87 333 -135 541h-43q-83 -291 -150 -541z" />
<glyph unicode="B" horiz-adv-x="1185" d="M135 0v1427h647q163 0 224 -82t61 -260q0 -80 -9.5 -134t-35.5 -98.5t-75 -69t-124 -31.5q154 -9 210.5 -97.5t56.5 -269.5q0 -206 -78 -295.5t-226 -89.5h-651zM399 281h320q84 0 84 157q0 170 -90 170h-314v-327zM399 877h312q39 0 56 31t17 104t-17 104t-56 31h-312 v-270z" />
<glyph unicode="C" horiz-adv-x="964" d="M80 727q0 175 21.5 301t62.5 210t108.5 133.5t150.5 70t198 20.5q81 0 173.5 -14t157.5 -37l-51 -291q-39 18 -103.5 28.5t-121.5 10.5q-54 0 -90 -3.5t-72 -13.5t-58 -30t-42 -51.5t-30 -78.5t-16 -110.5t-6 -148.5q0 -119 11.5 -198t32.5 -129t61.5 -76t87.5 -35 t121 -9q55 0 119.5 11t105.5 28l51 -297q-146 -47 -331 -47q-142 0 -240 36.5t-167.5 123t-101.5 233t-32 363.5z" />
<glyph unicode="D" horiz-adv-x="1234" d="M135 0v1427h477q114 0 197.5 -20t151 -68t109 -129t63.5 -202t22 -287q0 -207 -32.5 -346.5t-102.5 -222t-168 -117.5t-240 -35h-477zM399 291h183q61 0 101.5 5.5t75 23t54.5 46t34.5 77.5t19.5 114t5 160q0 97 -5 163.5t-20 115t-34 75.5t-54.5 43t-74.5 20.5t-102 4.5 h-183v-848z" />
<glyph unicode="E" horiz-adv-x="1026" d="M135 0v1427h852v-288h-588v-256h420v-283h-420v-311h588v-289h-852z" />
<glyph unicode="F" horiz-adv-x="966" d="M135 0v1427h832v-288h-568v-332h420v-283h-420v-524h-264z" />
<glyph unicode="G" horiz-adv-x="1165" d="M80 727q0 145 16.5 257t51.5 193t82.5 136.5t115.5 88t145 46.5t175 14q84 0 189.5 -14.5t168.5 -36.5l-47 -291q-39 17 -131 29t-154 12q-67 0 -110.5 -5t-84 -21t-63.5 -45t-40.5 -78t-24.5 -119t-7 -170q0 -119 11.5 -198t32.5 -129t61.5 -76t87.5 -35t121 -9 q28 0 108 11v299h-225v282h496v-829q-71 -28 -198 -48t-236 -20q-142 0 -240 36.5t-167.5 123t-101.5 233t-32 363.5z" />
<glyph unicode="H" horiz-adv-x="1226" d="M135 0v1427h264v-520h428v520h265v-1427h-265v602h-428v-602h-264z" />
<glyph unicode="I" horiz-adv-x="534" d="M135 0v1427h264v-1427h-264z" />
<glyph unicode="J" horiz-adv-x="772" d="M4 25l45 294q88 -40 201 -40q127 0 127 167v981h268v-1034q0 -96 -21 -171t-55 -121.5t-82.5 -76.5t-98.5 -41.5t-107 -11.5q-149 0 -277 54z" />
<glyph unicode="K" horiz-adv-x="1120" d="M135 0v1427h264v-1427h-264zM401 754q54 56 166.5 238.5t235.5 434.5h313q-130 -252 -235.5 -427t-151.5 -228q48 -46 164.5 -251t253.5 -521h-318q-144 328 -261 527t-167 227z" />
<glyph unicode="L" horiz-adv-x="907" d="M135 0v1427h264v-1136h514v-291h-778z" />
<glyph unicode="M" horiz-adv-x="1540" d="M135 0v1427h354q134 -338 293 -835q131 431 285 835h338v-1427h-256v965q-152 -424 -281 -846h-211q-201 665 -266 846v-965h-256z" />
<glyph unicode="N" horiz-adv-x="1306" d="M135 0v1427h344q218 -446 430 -940v940h262v-1427h-327q-178 411 -451 975v-975h-258z" />
<glyph unicode="O" horiz-adv-x="1267" d="M80 729q0 173 23 299t66 209.5t112.5 133.5t154 70.5t199.5 20.5t199.5 -20.5t154 -70.5t112.5 -133.5t66 -209.5t23 -299q0 -218 -34 -366t-106.5 -234t-172 -122t-242.5 -36t-242.5 36t-172 122t-106.5 234t-34 366zM362 725q0 -104 4 -171.5t16 -121t29.5 -82.5 t50.5 -48t72 -24.5t101 -5.5t101 5.5t72 24.5t51 48t30 82.5t16 121.5t4 171q0 102 -4 168t-16.5 117t-29.5 78t-51 44.5t-72 22t-101 4.5t-101 -4.5t-72 -22t-51 -44.5t-29.5 -78.5t-16 -117t-3.5 -167.5z" />
<glyph unicode="P" horiz-adv-x="1122" d="M135 0v1427h637q313 0 313 -501q0 -99 -19 -184.5t-56 -153t-98 -106t-138 -38.5h-375v-444h-264zM399 717h281q115 0 115 209q0 219 -111 219h-285v-428z" />
<glyph unicode="Q" horiz-adv-x="1282" d="M86 729q0 173 23 299t66.5 209.5t113 133.5t154 70.5t198.5 20.5q115 0 199.5 -20.5t154 -70.5t112.5 -133.5t66 -209.5t23 -299q0 -312 -73 -473t-222 -203q109 -42 336 -446h-303q-174 348 -295 364q-113 0 -198 22.5t-154 75.5t-112 140t-66 216t-23 304zM369 725 q0 -104 3.5 -171.5t16 -121t29.5 -82.5t50 -48t72 -24.5t101 -5.5t101 5.5t72 24.5t51 48t30 82.5t16 121.5t4 171q0 102 -4 168t-16.5 117t-29.5 78t-51 44.5t-72 22t-101 4.5t-101 -4.5t-71.5 -22t-50.5 -44.5t-29.5 -78.5t-16 -117t-3.5 -167.5z" />
<glyph unicode="R" horiz-adv-x="1183" d="M135 0v1427h637q313 0 313 -417q0 -81 -14.5 -147.5t-46.5 -122.5t-88.5 -89.5t-134.5 -38.5q59 -27 139.5 -156.5t235.5 -455.5h-330q-130 288 -202.5 399t-127.5 111h-117v-510h-264zM399 780h293q46 0 73.5 43.5t27.5 134.5q0 94 -26.5 141.5t-70.5 47.5h-297v-367z " />
<glyph unicode="S" horiz-adv-x="1017" d="M68 973q0 261 121.5 375t381.5 114q218 0 365 -67l-53 -283q-132 47 -314 47q-124 0 -171.5 -31.5t-47.5 -107.5q0 -48 16 -74t65 -44t149 -32q197 -28 286.5 -130t89.5 -304q0 -132 -28.5 -221t-91.5 -143.5t-155.5 -77.5t-229.5 -23q-102 0 -201.5 18.5t-169.5 49.5 l55 283q142 -48 314 -48q128 0 175.5 29.5t47.5 110.5q0 49 -16.5 76.5t-70 49t-159.5 35.5q-188 25 -273 115t-85 283z" />
<glyph unicode="T" horiz-adv-x="1032" d="M2 1139v288h1028v-288h-381v-1139h-266v1139h-381z" />
<glyph unicode="U" horiz-adv-x="1218" d="M119 399v1028h266v-862q0 -35 0.5 -54.5t2 -47.5t4.5 -43.5t8.5 -36.5t14 -32.5t20.5 -25.5t28.5 -20.5t37.5 -13.5t47.5 -9.5t59.5 -2.5q47 0 81.5 6.5t59 16.5t40.5 31t25 40t13.5 54t5.5 62.5t1 75.5v862h264v-1028q0 -126 -33.5 -211.5t-100.5 -132t-152 -65.5 t-204 -19q-94 0 -166 11.5t-134.5 40.5t-103 76.5t-63 123t-22.5 176.5z" />
<glyph unicode="V" horiz-adv-x="1069" d="M-53 1427h291q70 -205 159 -521.5t144 -551.5q130 423 278 1073h283q-69 -295 -188.5 -708t-223.5 -719h-338q-85 355 -198.5 757.5t-206.5 669.5z" />
<glyph unicode="W" horiz-adv-x="1656" d="M-10 1427h286q132 -479 226 -999q166 712 213 999h237q150 -628 213 -999q123 471 211 999h277q-55 -289 -149.5 -700.5t-176.5 -726.5h-338q-55 362 -155 862q-57 -326 -185 -862h-336q-174 889 -323 1427z" />
<glyph unicode="X" horiz-adv-x="1126" d="M-20 0q129 201 428 721q-296 500 -426 706h346q198 -333 245 -413q139 242 222 413h327q-112 -217 -383 -700q282 -499 404 -727h-332q-168 308 -238 434q-188 -314 -264 -434h-329z" />
<glyph unicode="Y" horiz-adv-x="1069" d="M-90 1427h350q150 -241 293 -505q199 347 272 505h326q-202 -391 -469 -845v-582h-264v580q-343 600 -508 847z" />
<glyph unicode="Z" d="M25 0v70q121 217 292 543t269 526h-529v288h949v-65q-96 -209 -279 -557.5t-285 -515.5h562v-289h-979z" />
<glyph unicode="[" horiz-adv-x="620" d="M152 -532v2078h499v-272h-239v-1536h239v-270h-499z" />
<glyph unicode="\" horiz-adv-x="798" d="M-33 1427h269l583 -1427h-266z" />
<glyph unicode="]" horiz-adv-x="620" d="M-31 -262h240v1536h-240v272h500v-2078h-500v270z" />
<glyph unicode="^" horiz-adv-x="919" d="M25 606l315 821h235l320 -821h-272l-166 473l-164 -473h-268z" />
<glyph unicode="_" horiz-adv-x="831" d="M45 -76h741v-301h-741v301z" />
<glyph unicode="`" horiz-adv-x="778" d="M143 1427h258l201 -264h-211z" />
<glyph unicode="a" horiz-adv-x="933" d="M76 319q0 87 15.5 149t41.5 99.5t69 59t89.5 28.5t111.5 7q85 0 191 -27q0 58 -6.5 91t-27.5 56t-57.5 31t-99.5 8q-133 0 -260 -49l-39 250q170 55 361 55q194 0 281.5 -90t87.5 -317v-617q-85 -38 -195.5 -60t-204.5 -22q-107 0 -173 15.5t-109 56t-59.5 106 t-16.5 170.5zM334 330q0 -78 23 -101.5t98 -23.5q78 0 139 28v199q-46 14 -137 14q-72 0 -97.5 -21t-25.5 -95z" />
<glyph unicode="b" horiz-adv-x="976" d="M109 45v1434h251v-461q38 25 95 42t114 17q85 0 144 -25.5t102 -87t63.5 -167.5t20.5 -262q0 -214 -44 -338t-131.5 -175t-234.5 -51q-98 0 -205 21t-175 53zM360 250q59 -27 129 -27q39 0 62.5 6t44 23.5t30.5 52.5t15.5 88.5t5.5 134.5q0 165 -31.5 222t-119.5 57 q-58 0 -97 -20.5t-39 -53.5v-483z" />
<glyph unicode="c" horiz-adv-x="774" d="M76 530q0 156 29.5 264.5t86.5 169.5t130.5 87t171.5 26q68 0 142 -12t122 -33l-53 -266q-88 43 -191 43q-41 0 -67 -5t-50.5 -21t-37.5 -47t-21 -83t-8 -129q0 -91 10.5 -147.5t36 -86t56.5 -39t81 -9.5q103 0 191 47l53 -264q-49 -25 -123 -39.5t-141 -14.5 q-98 0 -171.5 27.5t-130.5 90t-86.5 173.5t-29.5 268z" />
<glyph unicode="d" horiz-adv-x="976" d="M76 528q0 154 25.5 263t74.5 170.5t111.5 88.5t144.5 27q99 0 184 -45v447h252v-1434q-69 -32 -175 -53t-204 -21q-149 0 -236.5 49.5t-132 171.5t-44.5 336zM330 532q0 -127 15.5 -190.5t47.5 -84.5t96 -21q81 0 127 24v481q0 34 -38 57t-93 23q-89 0 -122 -61t-33 -228 z" />
<glyph unicode="e" horiz-adv-x="911" d="M76 530q0 155 27 263t80.5 169.5t123 88t164.5 26.5q89 0 149.5 -15.5t110 -56.5t76 -113.5t37.5 -185.5q7 -69 7 -156q0 -55 -3 -118h-514q3 -119 45.5 -159t140.5 -40q46 0 117 10.5t115 24.5l39 -239q-62 -26 -147.5 -42t-156.5 -16q-93 0 -164.5 27.5t-128.5 90 t-87.5 173.5t-30.5 268zM336 664h293q-3 105 -33.5 140.5t-106.5 35.5q-79 0 -110.5 -37.5t-42.5 -138.5z" />
<glyph unicode="f" horiz-adv-x="634" d="M2 776v271h135v55q0 91 17.5 160t46.5 111t72 68.5t88.5 36t101.5 9.5q62 0 130.5 -13.5t115.5 -35.5l-56 -244q-69 27 -157 27q-56 0 -81.5 -33t-25.5 -107v-34h258v-271h-258v-776h-252v776h-135z" />
<glyph unicode="g" horiz-adv-x="976" d="M76 516q0 213 44.5 336t132.5 174t236 51q98 0 204 -20.5t175 -52.5v-920q0 -123 -23.5 -213.5t-62.5 -145t-100 -87.5t-126 -44.5t-150 -11.5q-79 0 -163.5 17.5t-144.5 44.5l45 245q139 -47 256 -47q109 0 163 43t54 152q-95 -60 -202 -60q-85 0 -145 25t-105 85 t-66.5 166t-21.5 263zM330 522q0 -165 31.5 -222.5t119.5 -57.5q57 0 96 20t39 53v484q-55 28 -127 28q-65 0 -96.5 -20.5t-47 -85.5t-15.5 -199z" />
<glyph unicode="h" horiz-adv-x="978" d="M109 0v1479h249v-467q120 65 226 65q58 0 100.5 -10.5t81 -41t62 -82t37.5 -135.5t14 -200v-608h-250v596q0 109 -35.5 156t-108.5 47q-53 0 -90 -17.5t-37 -48.5v-733h-249z" />
<glyph unicode="i" horiz-adv-x="464" d="M92 1354q0 93 29.5 121t114.5 28q83 0 112 -28t29 -121q0 -103 -29.5 -134.5t-111.5 -31.5q-85 0 -114.5 31.5t-29.5 134.5zM109 0v1049h251v-1049h-251z" />
<glyph unicode="j" horiz-adv-x="464" d="M-20 -162q65 0 95.5 35.5t30.5 114.5v1061h254v-1053q0 -229 -88 -320.5t-292 -91.5v254zM90 1354q0 94 29 121.5t114 27.5q84 0 114 -28t30 -121q0 -102 -30.5 -134t-113.5 -32q-84 0 -113.5 31.5t-29.5 134.5z" />
<glyph unicode="k" horiz-adv-x="962" d="M109 0v1479h251v-1479h-251zM360 555q70 81 291 494h289q-98 -189 -175 -314t-112 -162q34 -29 119 -181t193 -392h-291q-263 522 -314 555z" />
<glyph unicode="l" horiz-adv-x="477" d="M109 297v1182h251v-1174q0 -145 56 -254l-226 -102q-81 125 -81 348z" />
<glyph unicode="m" horiz-adv-x="1460" d="M109 0v983q209 94 415 94q138 0 211 -67q151 67 289 67q120 0 191.5 -45.5t108 -154.5t36.5 -297v-580h-250v555q0 145 -27 193.5t-112 48.5q-62 0 -127 -19q16 -88 16 -198v-580h-250v555q0 145 -27 193.5t-112 48.5q-59 0 -111 -19v-778h-251z" />
<glyph unicode="n" horiz-adv-x="978" d="M109 0v983q89 40 204 67t222 27q120 0 193.5 -45t113 -155.5t39.5 -296.5v-580h-252v555q0 145 -28.5 193.5t-119.5 48.5q-56 0 -121 -19v-778h-251z" />
<glyph unicode="o" horiz-adv-x="966" d="M76 530q0 159 25 266t78.5 168.5t125.5 87t176 25.5q106 0 179.5 -25.5t127 -87t78.5 -168.5t25 -266q0 -160 -25 -268.5t-78 -172.5t-127 -91t-180 -27q-105 0 -178 27t-125.5 91t-77 172.5t-24.5 268.5zM330 524q0 -133 14.5 -198t44.5 -87t92 -22q64 0 95.5 22t46 87 t14.5 198q0 104 -6.5 163.5t-26.5 92.5t-47 42t-76 9q-63 0 -92.5 -20t-44 -84.5t-14.5 -202.5z" />
<glyph unicode="p" horiz-adv-x="976" d="M109 -393v1397q67 32 174 52.5t206 20.5q148 0 234.5 -48.5t131 -170t44.5 -334.5q0 -125 -17 -220.5t-47.5 -158t-75.5 -102t-97.5 -56t-116.5 -16.5q-97 0 -185 47v-411h-251zM360 309q0 -35 36.5 -57.5t92.5 -22.5q91 0 124.5 60.5t33.5 226.5q0 127 -15.5 191 t-47.5 86t-95 22q-76 0 -129 -24v-482z" />
<glyph unicode="q" horiz-adv-x="976" d="M76 516q0 213 44.5 336t132.5 174t236 51q98 0 204 -20.5t175 -52.5v-1397h-252v428q-95 -64 -208 -64q-68 0 -119 16t-92.5 54t-67 100t-39.5 155.5t-14 219.5zM330 522q0 -165 31.5 -222.5t119.5 -57.5q57 0 96 20t39 53v484q-55 28 -127 28q-65 0 -96.5 -20.5 t-47 -85.5t-15.5 -199z" />
<glyph unicode="r" horiz-adv-x="651" d="M109 0v1049h251v-82q52 110 203 110q41 0 84 -6v-293q-47 17 -117 17q-71 0 -120.5 -28.5t-49.5 -78.5v-688h-251z" />
<glyph unicode="s" horiz-adv-x="792" d="M61 719q0 83 19 146.5t51 103t80.5 64.5t102 34.5t120.5 9.5q69 0 148.5 -15.5t138.5 -41.5l-49 -234q-129 45 -248 45q-67 0 -93 -16.5t-26 -73.5q0 -41 28.5 -58t125.5 -32q151 -24 215.5 -93t64.5 -226q0 -104 -28 -176.5t-81 -111.5t-117 -56t-148 -17q-70 0 -156 16 t-143 42l49 237q118 -43 237 -43q81 0 113.5 17t32.5 75q0 44 -33.5 64.5t-134.5 32.5q-93 11 -149 39t-88 93.5t-32 174.5z" />
<glyph unicode="t" horiz-adv-x="698" d="M12 778v271h135v155l254 127v-282h263v-271h-263v-391q0 -82 24 -115.5t89 -33.5t133 28l41 -241q-45 -25 -114.5 -39.5t-137.5 -14.5q-73 0 -123.5 16t-89.5 57.5t-57.5 118t-18.5 191.5v424h-135z" />
<glyph unicode="u" horiz-adv-x="978" d="M102 467v582h250v-557q0 -144 28.5 -193t119.5 -49q48 0 123 20v779h247v-986q-88 -39 -203.5 -66.5t-220.5 -27.5q-120 0 -193.5 46t-112 156t-38.5 296z" />
<glyph unicode="v" horiz-adv-x="837" d="M-18 1047h254q95 -310 184 -728q123 448 178 728h250q-125 -536 -295 -1047h-299q-133 586 -272 1047z" />
<glyph unicode="w" horiz-adv-x="1372" d="M-20 1049h258q95 -318 174 -721q77 284 163 721h228q36 -135 82 -350.5t73 -370.5q124 451 172 721h254q-154 -644 -288 -1049h-301q-61 366 -111 608q-46 -275 -135 -608h-303q-112 516 -266 1049z" />
<glyph unicode="x" horiz-adv-x="851" d="M-10 0q100 147 319 522q-196 344 -315 525h287q56 -84 163 -277q50 86 148 277h272q-125 -241 -284 -517q176 -312 286 -530h-276q-48 101 -152 287q-99 -170 -174 -287h-274z" />
<glyph unicode="y" horiz-adv-x="837" d="M-18 1047h254q92 -297 184 -730q122 443 178 730h250q-132 -568 -320 -1110q-10 -29 -36 -104.5t-45 -128t-37 -97.5h-277q62 134 137 342q-117 529 -288 1098z" />
<glyph unicode="z" horiz-adv-x="815" d="M16 0v51q103 173 223 394t171 333h-365v271h750v-52q-74 -155 -189.5 -369.5t-199.5 -357.5h368v-270h-758z" />
<glyph unicode="{" horiz-adv-x="618" d="M63 377v262q183 0 183 412q0 414 280 532l121 -233q-57 -27 -89.5 -65.5t-52.5 -125.5t-20 -231q0 -110 -14.5 -192.5t-38 -127t-45.5 -67t-45 -31.5q18 -7 35.5 -21.5t37.5 -47t35 -77.5t25 -117.5t10 -162.5q0 -145 18.5 -229t51 -123t92.5 -68l-121 -227 q-45 19 -81.5 43.5t-75 67.5t-64.5 98t-42.5 137.5t-16.5 183.5q0 410 -183 410z" />
<glyph unicode="|" horiz-adv-x="657" d="M197 -524v2070h264v-2070h-264z" />
<glyph unicode="}" horiz-adv-x="618" d="M-27 -330q56 28 88 66.5t52 124.5t20 229q0 89 10 161t25 116t35 76t37.5 46t35.5 21q-23 9 -45 32t-45.5 68.5t-38 129t-14.5 194.5q0 144 -18.5 229t-50.5 123.5t-91 67.5l119 229q281 -119 281 -532q0 -412 182 -412v-260q-182 0 -182 -410q0 -413 -281 -532z" />
<glyph unicode="~" horiz-adv-x="921" d="M37 754q46 99 102.5 154t134.5 55q53 0 107.5 -26t90.5 -57t78 -57t73 -26q37 0 60 28.5t46 106.5l158 -158q-32 -106 -102.5 -177t-166.5 -71q-46 0 -95.5 26.5t-85.5 58.5t-79 58.5t-77 26.5q-31 0 -55 -25t-46 -91z" />
<glyph unicode="&#xa1;" horiz-adv-x="544" d="M119 895q0 78 14.5 117t45 52t91.5 13q60 0 90 -13t45 -52t15 -117q0 -104 -31 -135t-119 -31q-90 0 -120.5 31t-30.5 135zM123 -362l59 944h183l59 -944h-301z" />
<glyph unicode="&#xa2;" horiz-adv-x="745" d="M74 774q0 135 22.5 235t65 162t97.5 96t128 46v219h191v-217q89 -10 155 -39l-49 -238q-45 22 -106 25v-588q59 3 106 29l49 -236q-53 -30 -155 -45v-243h-191v243q-151 28 -232 157t-81 394zM307 768q0 -111 19.5 -170.5t60.5 -83.5v512q-41 -24 -60.5 -83t-19.5 -175z " />
<glyph unicode="&#xa3;" horiz-adv-x="1007" d="M49 573v261h92v131q0 253 113 375t364 122q210 0 365 -67l-53 -283q-132 47 -314 47q-123 0 -166.5 -38.5t-43.5 -131.5v-155h325v-261h-325v-284h536v-289h-801v573h-92z" />
<glyph unicode="&#xa4;" horiz-adv-x="1126" d="M90 1247l234 180l106 -172q67 23 141 23q68 0 140 -21l88 170l235 -178l-102 -182q49 -122 49 -338q0 -220 -49 -342l112 -203l-233 -184l-102 190q-59 -20 -138 -20q-82 0 -141 23l-121 -193l-215 184l121 201q-51 119 -51 344q0 210 45 326zM406 723q0 -79 6 -131.5 t17 -85t33 -48.5t45.5 -21t63.5 -5t64 5t46 21t33 48.5t17 84.5t6 132q0 82 -6.5 135.5t-16.5 85.5t-33 47.5t-46 20t-64 4.5q-34 0 -54 -2.5t-41 -12.5t-32.5 -29t-21 -51.5t-13 -80.5t-3.5 -117z" />
<glyph unicode="&#xa5;" horiz-adv-x="1069" d="M-90 1427h350q150 -241 293 -505q199 347 272 505h326q-142 -273 -369 -671h154v-224h-254v-139h254v-223h-254v-170h-264v170h-271v223h271v139h-271v224h168q-285 487 -405 671z" />
<glyph unicode="&#xa6;" horiz-adv-x="657" d="M197 227h264v-751h-264v751zM197 795v751h264v-751h-264z" />
<glyph unicode="&#xa7;" horiz-adv-x="1019" d="M57 541q0 140 74 252q-49 79 -49 208q0 240 125.5 350.5t370.5 110.5q93 0 184.5 -17.5t155.5 -47.5l-52 -264q-113 45 -291 45q-118 0 -163 -30.5t-45 -100.5q0 -67 41 -94.5t178 -45.5q190 -27 285.5 -122.5t95.5 -278.5q0 -132 -80 -244q53 -83 53 -217 q0 -240 -125 -350.5t-369 -110.5q-202 0 -340 64l52 266q118 -47 291 -47q117 0 162.5 31.5t45.5 101.5q0 46 -16 70t-62 40t-141 29q-190 27 -285.5 122t-95.5 280zM322 561q0 -47 18.5 -72t73.5 -42t168 -31q50 -6 88 -21q32 37 32 90q0 46 -18 71t-74 43.5t-168 31.5 q-48 3 -90 16q-30 -27 -30 -86z" />
<glyph unicode="&#xa8;" horiz-adv-x="804" d="M92 1290q0 82 23 106.5t88 24.5q67 0 90.5 -24.5t23.5 -106.5q0 -90 -23.5 -117.5t-90.5 -27.5q-64 0 -87.5 28t-23.5 117zM461 1290q0 82 22.5 106.5t89.5 24.5q66 0 89.5 -24.5t23.5 -106.5q0 -89 -23.5 -117t-89.5 -28t-89 27.5t-23 117.5z" />
<glyph unicode="&#xa9;" horiz-adv-x="1343" d="M86 729q0 172 25 299t71.5 210t120 133t162 70.5t207.5 20.5q118 0 206 -20.5t162 -70.5t120.5 -133t71.5 -210t25 -299q0 -218 -37 -366t-114 -234t-181.5 -122t-252.5 -36q-118 0 -207 22.5t-162.5 75.5t-120 139.5t-71.5 216t-25 304.5zM297 729q0 -101 6.5 -176.5 t18 -133t34 -96.5t49.5 -65t69 -40t87.5 -19.5t110.5 -5.5t110.5 5.5t87.5 19.5t69 40t49.5 65t34 96.5t18 133t6.5 176.5q0 115 -7.5 195t-27.5 137.5t-46 91.5t-72 53t-95.5 25t-126.5 6t-126.5 -6t-95.5 -25t-72 -53t-46 -91.5t-27.5 -137.5t-7.5 -195zM383 723 q0 131 19 214.5t63 129.5t103 63t151 17q124 0 207 -39l-41 -211q-66 27 -150 27q-56 0 -83 -13t-41.5 -57.5t-14.5 -134.5q0 -123 29.5 -163t109.5 -40q87 0 150 29l41 -209q-88 -43 -207 -43q-92 0 -151 17.5t-103 64.5t-63 131.5t-19 216.5z" />
<glyph unicode="&#xaa;" horiz-adv-x="737" d="M98 924q0 76 15.5 125.5t48.5 74t71.5 33t96.5 8.5q62 0 131 -16q0 78 -24 102.5t-107 24.5q-102 0 -183 -33l-28 180q133 39 254 39q136 0 201 -62.5t65 -215.5v-449q-58 -27 -138.5 -42t-150.5 -15q-148 0 -200 50t-52 196zM283 932q0 -53 16.5 -71.5t65.5 -18.5 q51 0 96 20v142q-31 10 -92 10q-48 0 -67 -15t-19 -67z" />
<glyph unicode="&#xab;" horiz-adv-x="1153" d="M37 651l444 586l144 -180l-256 -400l256 -407l-142 -184zM528 651l445 586l143 -180l-256 -400l256 -407l-141 -184z" />
<glyph unicode="&#xac;" horiz-adv-x="870" d="M45 602v301h778v-903h-262v602h-516z" />
<glyph unicode="&#xad;" horiz-adv-x="520" d="M45 432v301h430v-301h-430z" />
<glyph unicode="&#xae;" horiz-adv-x="937" d="M63 940q0 122 16.5 211.5t47.5 149t81.5 95t113 50t147.5 14.5q108 0 180.5 -23.5t125 -82.5t76 -160t23.5 -254q0 -151 -23.5 -252.5t-75 -162t-125 -86t-181.5 -25.5q-144 0 -230.5 47t-131 163t-44.5 316zM219 940q0 -143 25 -218t76.5 -102.5t148.5 -27.5 q99 0 151 27.5t77.5 102.5t25.5 218q0 114 -12.5 182t-45 105.5t-76.5 49t-120 11.5q-75 0 -118.5 -11.5t-75.5 -49t-44 -105.5t-12 -182zM287 666v551h278q60 0 89.5 -51t29.5 -132q0 -90 -28 -125t-87 -35q37 -22 61.5 -66t35.5 -142h-156q-3 58 -20 100.5t-35 42.5h-23 v-143h-145zM432 975h74q29 0 29 49q0 47 -29 47h-74v-96z" />
<glyph unicode="&#xaf;" horiz-adv-x="843" d="M190 1171v218h480v-218h-480z" />
<glyph unicode="&#xb0;" horiz-adv-x="733" d="M45 999q0 183 33 283.5t100.5 140t188.5 39.5q91 0 149 -20.5t98 -73.5t57 -141.5t17 -227.5q0 -187 -32.5 -292t-100.5 -148t-188 -43t-188 43t-101 148t-33 292zM262 997q0 -115 10 -170t30.5 -73.5t64.5 -18.5t64.5 19t29 72.5t8.5 170.5q0 113 -8.5 164t-28.5 67.5 t-65 16.5q-44 0 -64.5 -16t-30.5 -68.5t-10 -163.5z" />
<glyph unicode="&#xb1;" horiz-adv-x="923" d="M59 16v301h803v-301h-803zM59 760v301h281v350h240v-350h282v-301h-282v-350h-240v350h-281z" />
<glyph unicode="&#xb2;" horiz-adv-x="745" d="M59 549q9 193 59.5 292.5t162.5 164.5q12 7 38 20.5t37.5 20.5t29.5 19.5t25.5 23t14 26t6.5 33.5q0 44 -25.5 61t-93.5 17q-45 0 -104 -11t-96 -24l-33 225q43 19 114 31t138 12q156 0 232.5 -65.5t76.5 -218.5q0 -216 -129 -275q-19 -8 -51.5 -21t-46 -19t-35 -16 t-30.5 -16.5t-20 -16.5t-15.5 -20.5t-6.5 -23.5h336v-219h-584z" />
<glyph unicode="&#xb3;" horiz-adv-x="733" d="M74 553l30 211q29 -12 82 -19.5t93 -7.5q85 0 112 17t27 63q0 53 -19.5 70.5t-74.5 17.5h-103v199h101q50 0 67 16t17 60q0 40 -24 53.5t-106 13.5q-104 0 -167 -26l-31 206q104 33 239 33q164 0 240 -53.5t76 -179.5q0 -102 -36.5 -154t-129.5 -61q98 -6 140 -63.5 t42 -168.5q0 -139 -83 -198.5t-249 -59.5q-126 0 -243 31z" />
<glyph unicode="&#xb4;" horiz-adv-x="778" d="M143 1163l201 264h258l-246 -264h-213z" />
<glyph unicode="&#xb6;" horiz-adv-x="1122" d="M37 926q0 501 313 501h637v-1427h-227v444h-131v-444h-228v444h-53q-77 0 -138 38.5t-98 106t-56 153t-19 184.5z" />
<glyph unicode="&#xb7;" horiz-adv-x="512" d="M94 623q0 112 32.5 145t127.5 33q67 0 99.5 -12.5t48.5 -50.5t16 -115q0 -121 -33.5 -159t-130.5 -38q-94 0 -127 38t-33 159z" />
<glyph unicode="&#xb8;" horiz-adv-x="1042" d="M420 -389l39 123q36 -19 102 -19q32 0 43.5 10t11.5 37q0 32 -30 42t-103 3l60 193h94v-80q88 0 130 -37.5t42 -124.5q0 -99 -52.5 -136.5t-183.5 -37.5q-95 0 -153 27z" />
<glyph unicode="&#xb9;" horiz-adv-x="651" d="M51 1270l416 211v-928h-205v582l-156 -80z" />
<glyph unicode="&#xba;" horiz-adv-x="768" d="M86 1057q0 219 75 312t222 93q150 0 224.5 -92.5t74.5 -312.5q0 -221 -75 -315.5t-224 -94.5q-148 0 -222.5 95t-74.5 315zM274 1053q0 -132 23 -175.5t86 -43.5q64 0 86.5 43t22.5 176q0 96 -10.5 142.5t-32 62.5t-66.5 16q-44 0 -65.5 -15.5t-32.5 -63t-11 -142.5z" />
<glyph unicode="&#xbb;" horiz-adv-x="1153" d="M39 248l256 399l-256 408l141 184l445 -588l-443 -583zM528 248l256 399l-256 408l144 184l444 -588l-442 -583z" />
<glyph unicode="&#xbc;" horiz-adv-x="1476" d="M16 1270l414 211v-928h-203v582l-157 -80zM170 0l735 1427h244l-735 -1427h-244zM741 186v115q146 309 316 598h262v-489h94v-224h-94v-186h-201v186h-377zM965 410h153v284q-90 -149 -153 -284z" />
<glyph unicode="&#xbd;" horiz-adv-x="1474" d="M12 1270l414 211v-928h-203v582l-157 -80zM166 0l735 1427h244l-735 -1427h-244zM852 0q10 195 59.5 294t161.5 163q13 7 44.5 24t44 25.5t31 23.5t25.5 32t7 38q0 44 -25.5 61t-93.5 17q-47 0 -105.5 -11t-93.5 -24l-33 225q41 19 111 31t137 12q158 0 235 -65.5 t77 -218.5q0 -216 -129 -275q-20 -8 -51.5 -21t-46 -19t-36 -16t-31 -16.5t-20.5 -16.5t-15.5 -20.5t-6.5 -23.5h338v-219h-584z" />
<glyph unicode="&#xbe;" horiz-adv-x="1476" d="M27 553l30 211q30 -12 82 -19.5t92 -7.5q86 0 114 17t28 63q0 53 -20 70.5t-77 17.5h-102v199h100q50 0 67 16t17 60q0 40 -23.5 53.5t-103.5 13.5q-103 0 -170 -26l-30 206q109 33 241 33q162 0 238 -53.5t76 -179.5q0 -102 -36.5 -154t-127.5 -61q98 -6 139 -63 t41 -169q0 -139 -83 -198.5t-247 -59.5q-128 0 -245 31zM281 0l733 1427h243l-735 -1427h-241zM778 186v115q146 309 316 598h262v-489h92v-224h-92v-186h-203v186h-375zM1001 410h152v284q-98 -162 -152 -284z" />
<glyph unicode="&#xbf;" horiz-adv-x="829" d="M31 25q0 155 71 292.5t203 288.5h254q-123 -178 -174 -297t-51 -272q0 -133 180 -133q157 0 240 39l51 -291q-61 -22 -152.5 -36.5t-165.5 -14.5q-244 0 -350 101.5t-106 322.5zM276 895q0 78 15 116.5t45 51t92 12.5q61 0 90.5 -12.5t44.5 -51t15 -116.5 q0 -104 -31 -135t-119 -31q-90 0 -121 31t-31 135z" />
<glyph unicode="&#xc0;" horiz-adv-x="1128" d="M-33 0q68 290 186 702.5t220 724.5h407q83 -341 197 -746.5t205 -680.5h-293q-49 152 -96 315h-469q-45 -171 -74 -315h-283zM264 1794h262l211 -264h-217zM389 600h328q-87 333 -135 541h-43q-83 -291 -150 -541z" />
<glyph unicode="&#xc1;" horiz-adv-x="1128" d="M-33 0q68 290 186 702.5t220 724.5h407q83 -341 197 -746.5t205 -680.5h-293q-49 152 -96 315h-469q-45 -171 -74 -315h-283zM387 1530l207 264h262l-256 -264h-213zM389 600h328q-87 333 -135 541h-43q-83 -291 -150 -541z" />
<glyph unicode="&#xc2;" horiz-adv-x="1128" d="M-33 0q68 290 186 702.5t220 724.5h407q83 -341 197 -746.5t205 -680.5h-293q-49 152 -96 315h-469q-45 -171 -74 -315h-283zM246 1530l200 264h240l207 -264h-219l-111 147l-104 -147h-213zM389 600h328q-87 333 -135 541h-43q-83 -291 -150 -541z" />
<glyph unicode="&#xc3;" horiz-adv-x="1128" d="M-33 0q68 290 186 702.5t220 724.5h407q83 -341 197 -746.5t205 -680.5h-293q-49 152 -96 315h-469q-45 -171 -74 -315h-283zM246 1636q36 78 78.5 120t101.5 42q40 0 77.5 -14.5t61 -31.5t52 -31.5t53.5 -14.5q29 0 46 21.5t36 84.5l118 -118q-25 -84 -78 -138.5 t-126 -54.5q-44 0 -86 24t-79.5 48t-70.5 24q-24 0 -42 -20.5t-36 -71.5zM389 600h328q-87 333 -135 541h-43q-83 -291 -150 -541z" />
<glyph unicode="&#xc4;" horiz-adv-x="1128" d="M-33 0q68 290 186 702.5t220 724.5h407q83 -341 197 -746.5t205 -680.5h-293q-49 152 -96 315h-469q-45 -171 -74 -315h-283zM266 1657q0 82 23 105.5t90 23.5q66 0 89.5 -24t23.5 -105q0 -90 -23.5 -118t-89.5 -28q-67 0 -90 27.5t-23 118.5zM389 600h328 q-87 333 -135 541h-43q-83 -291 -150 -541zM635 1657q0 82 23 105.5t92 23.5q65 0 87.5 -24t22.5 -105q0 -91 -23 -118.5t-87 -27.5q-68 0 -91.5 27.5t-23.5 118.5z" />
<glyph unicode="&#xc5;" horiz-adv-x="1128" d="M-33 0q68 290 186 702.5t220 724.5h407q83 -341 197 -746.5t205 -680.5h-293q-49 152 -96 315h-469q-45 -171 -74 -315h-283zM360 1636q0 116 47.5 160.5t157.5 44.5q106 0 153.5 -45t47.5 -160t-47 -159.5t-154 -44.5q-108 0 -156.5 44.5t-48.5 159.5zM389 600h328 q-87 333 -135 541h-43q-83 -291 -150 -541zM487 1634q0 -44 16 -62t62 -18q44 0 60 18.5t16 61.5q0 44 -16 62t-60 18q-46 0 -62 -18t-16 -62z" />
<glyph unicode="&#xc6;" horiz-adv-x="1591" d="M-258 0q155 301 384.5 714.5t408.5 712.5h1017v-288h-585v-256h342v-283h-342v-311h585v-289h-850v315h-483q-34 -65 -87.5 -171.5t-72.5 -143.5h-317zM367 600h335v541h-40q-139 -242 -295 -541z" />
<glyph unicode="&#xc7;" horiz-adv-x="964" d="M80 727q0 175 21.5 301t62.5 210t108.5 133.5t150.5 70t198 20.5q81 0 173.5 -14t157.5 -37l-51 -291q-39 18 -103.5 28.5t-121.5 10.5q-54 0 -90 -3.5t-72 -13.5t-58 -30t-42 -51.5t-30 -78.5t-16 -110.5t-6 -148.5q0 -119 11.5 -198t32.5 -129t61.5 -76t87.5 -35 t121 -9q55 0 119.5 11t105.5 28l51 -297q-146 -47 -331 -47q-142 0 -240 36.5t-167.5 123t-101.5 233t-32 363.5zM424 -389l39 123q36 -19 102 -19q32 0 44 10.5t12 36.5q0 32 -30 42.5t-104 2.5l60 193h94v-80q88 0 130 -37.5t42 -124.5q0 -99 -52 -136.5t-183 -37.5 q-96 0 -154 27z" />
<glyph unicode="&#xc8;" horiz-adv-x="1026" d="M135 0v1427h852v-288h-588v-256h420v-283h-420v-311h588v-289h-852zM317 1794h263l211 -264h-218z" />
<glyph unicode="&#xc9;" horiz-adv-x="1026" d="M135 0v1427h852v-288h-588v-256h420v-283h-420v-311h588v-289h-852zM401 1530l209 264h260l-256 -264h-213z" />
<glyph unicode="&#xca;" horiz-adv-x="1026" d="M135 0v1427h852v-288h-588v-256h420v-283h-420v-311h588v-289h-852zM252 1530l199 264h241l207 -264h-219l-111 147l-104 -147h-213z" />
<glyph unicode="&#xcb;" horiz-adv-x="1026" d="M135 0v1427h852v-288h-588v-256h420v-283h-420v-311h588v-289h-852zM272 1657q0 82 23 105.5t90 23.5q66 0 89.5 -24t23.5 -105q0 -90 -23.5 -118t-89.5 -28q-67 0 -90 27.5t-23 118.5zM641 1657q0 82 23 105.5t90 23.5q66 0 89 -24t23 -105q0 -91 -23 -118.5t-89 -27.5 q-67 0 -90 27.5t-23 118.5z" />
<glyph unicode="&#xcc;" horiz-adv-x="532" d="M-47 1794h262l211 -264h-215zM135 0v1427h264v-1427h-264z" />
<glyph unicode="&#xcd;" horiz-adv-x="532" d="M113 1530l209 264h260l-256 -264h-213zM133 0v1427h264v-1427h-264z" />
<glyph unicode="&#xce;" horiz-adv-x="532" d="M-55 1530l200 264h240l207 -264h-219l-111 147l-104 -147h-213zM135 0v1427h264v-1427h-264z" />
<glyph unicode="&#xcf;" horiz-adv-x="532" d="M-29 1657q0 82 22.5 105.5t88.5 23.5q68 0 91.5 -24t23.5 -105q0 -91 -24 -118.5t-91 -27.5q-65 0 -88 27.5t-23 118.5zM133 0v1427h264v-1427h-264zM340 1657q0 82 23 105.5t90 23.5q66 0 89 -24t23 -105q0 -91 -23 -118.5t-89 -27.5q-67 0 -90 27.5t-23 118.5z" />
<glyph unicode="&#xd0;" horiz-adv-x="1232" d="M49 614v226h86v587h475q114 0 198 -20t151.5 -68t108.5 -129t63 -202t22 -287q0 -207 -32.5 -346.5t-102 -222t-168 -117.5t-240.5 -35h-475v614h-86zM397 291h183q93 0 144.5 14t87.5 61t48 128t12 223q0 98 -5 164t-20 114t-34 75t-55.5 42.5t-75.5 20t-102 4.5h-183 v-297h260v-226h-260v-323z" />
<glyph unicode="&#xd1;" horiz-adv-x="1306" d="M135 0v1427h344q218 -446 430 -940v940h262v-1427h-327q-178 411 -451 975v-975h-258zM342 1636q36 78 78.5 120t101.5 42q40 0 77.5 -14.5t61 -31.5t52 -31.5t53.5 -14.5q28 0 46 22t36 84l119 -118q-25 -84 -78.5 -138.5t-126.5 -54.5q-44 0 -86 24t-79.5 48t-70.5 24 q-24 0 -41.5 -20.5t-35.5 -71.5z" />
<glyph unicode="&#xd2;" horiz-adv-x="1267" d="M80 729q0 173 23 299t66 209.5t112.5 133.5t154 70.5t199.5 20.5t199.5 -20.5t154 -70.5t112.5 -133.5t66 -209.5t23 -299q0 -218 -34 -366t-106.5 -234t-172 -122t-242.5 -36t-242.5 36t-172 122t-106.5 234t-34 366zM336 1794h262l211 -264h-217zM362 725 q0 -104 4 -171.5t16 -121t29.5 -82.5t50.5 -48t72 -24.5t101 -5.5t101 5.5t72 24.5t51 48t30 82.5t16 121.5t4 171q0 102 -4 168t-16.5 117t-29.5 78t-51 44.5t-72 22t-101 4.5t-101 -4.5t-72 -22t-51 -44.5t-29.5 -78.5t-16 -117t-3.5 -167.5z" />
<glyph unicode="&#xd3;" horiz-adv-x="1267" d="M80 729q0 173 23 299t66 209.5t112.5 133.5t154 70.5t199.5 20.5t199.5 -20.5t154 -70.5t112.5 -133.5t66 -209.5t23 -299q0 -218 -34 -366t-106.5 -234t-172 -122t-242.5 -36t-242.5 36t-172 122t-106.5 234t-34 366zM362 725q0 -104 4 -171.5t16 -121t29.5 -82.5 t50.5 -48t72 -24.5t101 -5.5t101 5.5t72 24.5t51 48t30 82.5t16 121.5t4 171q0 102 -4 168t-16.5 117t-29.5 78t-51 44.5t-72 22t-101 4.5t-101 -4.5t-72 -22t-51 -44.5t-29.5 -78.5t-16 -117t-3.5 -167.5zM401 1530l207 264h262l-256 -264h-213z" />
<glyph unicode="&#xd4;" horiz-adv-x="1267" d="M80 729q0 173 23 299t66 209.5t112.5 133.5t154 70.5t199.5 20.5t199.5 -20.5t154 -70.5t112.5 -133.5t66 -209.5t23 -299q0 -218 -34 -366t-106.5 -234t-172 -122t-242.5 -36t-242.5 36t-172 122t-106.5 234t-34 366zM309 1530l201 264h240l206 -264h-219l-110 147 l-105 -147h-213zM362 725q0 -104 4 -171.5t16 -121t29.5 -82.5t50.5 -48t72 -24.5t101 -5.5t101 5.5t72 24.5t51 48t30 82.5t16 121.5t4 171q0 102 -4 168t-16.5 117t-29.5 78t-51 44.5t-72 22t-101 4.5t-101 -4.5t-72 -22t-51 -44.5t-29.5 -78.5t-16 -117t-3.5 -167.5z" />
<glyph unicode="&#xd5;" horiz-adv-x="1267" d="M80 729q0 173 23 299t66 209.5t112.5 133.5t154 70.5t199.5 20.5t199.5 -20.5t154 -70.5t112.5 -133.5t66 -209.5t23 -299q0 -218 -34 -366t-106.5 -234t-172 -122t-242.5 -36t-242.5 36t-172 122t-106.5 234t-34 366zM322 1636q74 162 180 162q52 0 97 -23t82 -46 t67 -23q28 0 45.5 22t35.5 84l117 -118q-23 -83 -77 -138t-128 -55q-43 0 -85 24t-79 48t-69 24q-24 0 -43 -20.5t-37 -71.5zM362 725q0 -104 4 -171.5t16 -121t29.5 -82.5t50.5 -48t72 -24.5t101 -5.5t101 5.5t72 24.5t51 48t30 82.5t16 121.5t4 171q0 102 -4 168 t-16.5 117t-29.5 78t-51 44.5t-72 22t-101 4.5t-101 -4.5t-72 -22t-51 -44.5t-29.5 -78.5t-16 -117t-3.5 -167.5z" />
<glyph unicode="&#xd6;" horiz-adv-x="1267" d="M80 729q0 173 23 299t66 209.5t112.5 133.5t154 70.5t199.5 20.5t199.5 -20.5t154 -70.5t112.5 -133.5t66 -209.5t23 -299q0 -218 -34 -366t-106.5 -234t-172 -122t-242.5 -36t-242.5 36t-172 122t-106.5 234t-34 366zM336 1657q0 82 22 105.5t88 23.5q67 0 90 -23.5 t23 -105.5q0 -91 -23 -118.5t-90 -27.5q-65 0 -87.5 27.5t-22.5 118.5zM362 725q0 -104 4 -171.5t16 -121t29.5 -82.5t50.5 -48t72 -24.5t101 -5.5t101 5.5t72 24.5t51 48t30 82.5t16 121.5t4 171q0 102 -4 168t-16.5 117t-29.5 78t-51 44.5t-72 22t-101 4.5t-101 -4.5 t-72 -22t-51 -44.5t-29.5 -78.5t-16 -117t-3.5 -167.5zM705 1657q0 82 22.5 105.5t89.5 23.5q66 0 88.5 -23.5t22.5 -105.5q0 -91 -23 -118.5t-88 -27.5q-67 0 -89.5 27.5t-22.5 118.5z" />
<glyph unicode="&#xd7;" horiz-adv-x="923" d="M90 993l172 213l197 -248l198 250l172 -215l-200 -248l198 -247l-168 -213l-198 247l-199 -247l-170 213l199 247z" />
<glyph unicode="&#xd8;" horiz-adv-x="1267" d="M4 0q19 28 73 104t83 119q-82 181 -82 506q0 173 23.5 299t66.5 209.5t113 133.5t154.5 70.5t199.5 20.5q214 0 334 -84q8 11 32 49h269q-26 -38 -78.5 -111.5t-77.5 -111.5q74 -168 74 -475q0 -175 -23 -304.5t-66 -216.5t-112 -139.5t-154 -75t-198 -22.5 q-206 0 -328 80q-3 -4 -16 -23t-21 -28h-266zM360 735q0 -8 1 -26t1 -27q3 -82 13 -156q49 71 194 279t224 323q-53 31 -158 31q-67 0 -108 -6.5t-75 -25.5t-51 -56t-25.5 -93.5t-8.5 -143.5q0 -15 -3.5 -48t-3.5 -51zM483 301q47 -29 152 -29q83 0 130.5 12t81 51t46 106 t14.5 182v145q-3 72 -12 125q-21 -30 -176 -252t-236 -340z" />
<glyph unicode="&#xd9;" horiz-adv-x="1218" d="M119 399v1028h266v-862q0 -35 0.5 -54.5t2 -47.5t4.5 -43.5t8.5 -36.5t14 -32.5t20.5 -25.5t28.5 -20.5t37.5 -13.5t47.5 -9.5t59.5 -2.5q47 0 81.5 6.5t59 16.5t40.5 31t25 40t13.5 54t5.5 62.5t1 75.5v862h264v-1028q0 -126 -33.5 -211.5t-100.5 -132t-152 -65.5 t-204 -19q-94 0 -166 11.5t-134.5 40.5t-103 76.5t-63 123t-22.5 176.5zM330 1794h262l211 -264h-215z" />
<glyph unicode="&#xda;" horiz-adv-x="1218" d="M119 399v1028h266v-862q0 -35 0.5 -54.5t2 -47.5t4.5 -43.5t8.5 -36.5t14 -32.5t20.5 -25.5t28.5 -20.5t37.5 -13.5t47.5 -9.5t59.5 -2.5q47 0 81.5 6.5t59 16.5t40.5 31t25 40t13.5 54t5.5 62.5t1 75.5v862h264v-1028q0 -126 -33.5 -211.5t-100.5 -132t-152 -65.5 t-204 -19q-94 0 -166 11.5t-134.5 40.5t-103 76.5t-63 123t-22.5 176.5zM418 1530l207 264h260l-254 -264h-213z" />
<glyph unicode="&#xdb;" horiz-adv-x="1218" d="M119 399v1028h266v-862q0 -35 0.5 -54.5t2 -47.5t4.5 -43.5t8.5 -36.5t14 -32.5t20.5 -25.5t28.5 -20.5t37.5 -13.5t47.5 -9.5t59.5 -2.5q47 0 81.5 6.5t59 16.5t40.5 31t25 40t13.5 54t5.5 62.5t1 75.5v862h264v-1028q0 -126 -33.5 -211.5t-100.5 -132t-152 -65.5 t-204 -19q-94 0 -166 11.5t-134.5 40.5t-103 76.5t-63 123t-22.5 176.5zM281 1530l200 264h240l207 -264h-219l-111 147l-104 -147h-213z" />
<glyph unicode="&#xdc;" horiz-adv-x="1218" d="M119 399v1028h266v-862q0 -35 0.5 -54.5t2 -47.5t4.5 -43.5t8.5 -36.5t14 -32.5t20.5 -25.5t28.5 -20.5t37.5 -13.5t47.5 -9.5t59.5 -2.5q47 0 81.5 6.5t59 16.5t40.5 31t25 40t13.5 54t5.5 62.5t1 75.5v862h264v-1028q0 -126 -33.5 -211.5t-100.5 -132t-152 -65.5 t-204 -19q-94 0 -166 11.5t-134.5 40.5t-103 76.5t-63 123t-22.5 176.5zM309 1657q0 82 22.5 105.5t88.5 23.5q67 0 89.5 -23.5t22.5 -105.5q0 -91 -22.5 -118.5t-89.5 -27.5q-65 0 -88 27.5t-23 118.5zM678 1657q0 82 23 105.5t90 23.5q66 0 88 -23.5t22 -105.5 q0 -91 -22.5 -118.5t-87.5 -27.5q-67 0 -90 27.5t-23 118.5z" />
<glyph unicode="&#xdd;" horiz-adv-x="1069" d="M-90 1427h350q150 -241 293 -505q199 347 272 505h326q-202 -391 -469 -845v-582h-264v580q-343 600 -508 847zM381 1530l209 264h260l-256 -264h-213z" />
<glyph unicode="&#xde;" horiz-adv-x="1122" d="M135 0v1427h264v-196h373q313 0 313 -502q0 -133 -32.5 -239t-104.5 -173t-174 -67h-375v-250h-264zM399 520h281q117 0 117 209q0 219 -113 219h-285v-428z" />
<glyph unicode="&#xdf;" horiz-adv-x="1103" d="M109 0v1071q0 213 111.5 302t326.5 89q248 0 352.5 -83.5t104.5 -286.5q0 -81 -9.5 -135.5t-35.5 -100.5t-75 -71.5t-124 -32.5q153 -9 209.5 -98.5t56.5 -270.5q0 -228 -105.5 -320t-357.5 -92q-65 0 -129 9l31 268q62 -8 110 -8q103 0 140 39.5t37 138.5 q0 111 -38 153.5t-128 42.5h-76v254h70q89 0 122 41t33 125q0 88 -39 120t-151 32q-94 0 -139.5 -45t-45.5 -125v-1016h-251z" />
<glyph unicode="&#xe0;" horiz-adv-x="933" d="M76 319q0 87 15.5 149t41.5 99.5t69 59t89.5 28.5t111.5 7q85 0 191 -27q0 58 -6.5 91t-27.5 56t-57.5 31t-99.5 8q-133 0 -260 -49l-39 250q170 55 361 55q194 0 281.5 -90t87.5 -317v-617q-85 -38 -195.5 -60t-204.5 -22q-107 0 -173 15.5t-109 56t-59.5 106 t-16.5 170.5zM162 1427h260l199 -264h-211zM334 330q0 -78 23 -101.5t98 -23.5q78 0 139 28v199q-46 14 -137 14q-72 0 -97.5 -21t-25.5 -95z" />
<glyph unicode="&#xe1;" horiz-adv-x="933" d="M76 319q0 87 15.5 149t41.5 99.5t69 59t89.5 28.5t111.5 7q85 0 191 -27q0 58 -6.5 91t-27.5 56t-57.5 31t-99.5 8q-133 0 -260 -49l-39 250q170 55 361 55q194 0 281.5 -90t87.5 -317v-617q-85 -38 -195.5 -60t-204.5 -22q-107 0 -173 15.5t-109 56t-59.5 106 t-16.5 170.5zM301 1163l203 264h256l-246 -264h-213zM334 330q0 -78 23 -101.5t98 -23.5q78 0 139 28v199q-46 14 -137 14q-72 0 -97.5 -21t-25.5 -95z" />
<glyph unicode="&#xe2;" horiz-adv-x="933" d="M76 319q0 87 15.5 149t41.5 99.5t69 59t89.5 28.5t111.5 7q85 0 191 -27q0 58 -6.5 91t-27.5 56t-57.5 31t-99.5 8q-133 0 -260 -49l-39 250q170 55 361 55q194 0 281.5 -90t87.5 -317v-617q-85 -38 -195.5 -60t-204.5 -22q-107 0 -173 15.5t-109 56t-59.5 106 t-16.5 170.5zM145 1163q165 220 199 264h242l207 -264h-222q-42 56 -106 146q-20 -27 -56 -76.5t-51 -69.5h-213zM334 330q0 -78 23 -101.5t98 -23.5q78 0 139 28v199q-46 14 -137 14q-72 0 -97.5 -21t-25.5 -95z" />
<glyph unicode="&#xe3;" horiz-adv-x="933" d="M76 319q0 87 15.5 149t41.5 99.5t69 59t89.5 28.5t111.5 7q85 0 191 -27q0 58 -6.5 91t-27.5 56t-57.5 31t-99.5 8q-133 0 -260 -49l-39 250q170 55 361 55q194 0 281.5 -90t87.5 -317v-617q-85 -38 -195.5 -60t-204.5 -22q-107 0 -173 15.5t-109 56t-59.5 106 t-16.5 170.5zM141 1274q36 78 79.5 121t103.5 43q41 0 77.5 -15t59 -32.5t50 -32.5t52.5 -15q28 0 46 22.5t36 84.5l117 -119q-25 -84 -77 -138t-126 -54q-43 0 -84 24t-77.5 48t-69.5 24q-24 0 -42 -20.5t-36 -73.5zM334 330q0 -78 23 -101.5t98 -23.5q78 0 139 28v199 q-46 14 -137 14q-72 0 -97.5 -21t-25.5 -95z" />
<glyph unicode="&#xe4;" horiz-adv-x="933" d="M76 319q0 87 15.5 149t41.5 99.5t69 59t89.5 28.5t111.5 7q85 0 191 -27q0 58 -6.5 91t-27.5 56t-57.5 31t-99.5 8q-133 0 -260 -49l-39 250q170 55 361 55q194 0 281.5 -90t87.5 -317v-617q-85 -38 -195.5 -60t-204.5 -22q-107 0 -173 15.5t-109 56t-59.5 106 t-16.5 170.5zM158 1290q0 82 23 106.5t87 24.5q67 0 91 -24.5t24 -106.5q0 -89 -24 -117t-91 -28q-64 0 -87 28t-23 117zM334 330q0 -78 23 -101.5t98 -23.5q78 0 139 28v199q-46 14 -137 14q-72 0 -97.5 -21t-25.5 -95zM526 1290q0 82 23 106.5t90 24.5q66 0 89.5 -24.5 t23.5 -106.5q0 -89 -23.5 -117t-89.5 -28q-67 0 -90 27.5t-23 117.5z" />
<glyph unicode="&#xe5;" horiz-adv-x="933" d="M76 319q0 87 15.5 149t41.5 99.5t69 59t89.5 28.5t111.5 7q85 0 191 -27q0 58 -6.5 91t-27.5 56t-57.5 31t-99.5 8q-133 0 -260 -49l-39 250q170 55 361 55q194 0 281.5 -90t87.5 -317v-617q-85 -38 -195.5 -60t-204.5 -22q-107 0 -173 15.5t-109 56t-59.5 106 t-16.5 170.5zM260 1315q0 116 47 160.5t158 44.5q106 0 153.5 -45t47.5 -160t-47.5 -160t-153.5 -45q-108 0 -156.5 45t-48.5 160zM334 330q0 -78 23 -101.5t98 -23.5q78 0 139 28v199q-46 14 -137 14q-72 0 -97.5 -21t-25.5 -95zM387 1313q0 -45 15 -61.5t63 -16.5 q44 0 59 17.5t15 60.5q0 46 -15 63t-59 17q-47 0 -62.5 -17.5t-15.5 -62.5z" />
<glyph unicode="&#xe6;" horiz-adv-x="1413" d="M76 319q0 87 15.5 149t41.5 99.5t69 59t89.5 28.5t111.5 7q85 0 191 -27q0 59 -6 90t-27 53.5t-57 29.5t-101 7q-149 0 -260 -43l-39 250q170 55 361 55q189 0 262 -94q79 94 246 94q89 0 149.5 -15.5t110.5 -56.5t76.5 -113.5t37 -185.5t3.5 -274h-512 q1 -62 12.5 -101.5t36 -61t55.5 -29t80 -7.5q48 0 118.5 10.5t114.5 24.5l39 -239q-63 -26 -146.5 -42t-156.5 -16q-140 0 -227 64q-69 -30 -159.5 -47t-170.5 -17q-107 0 -173 15.5t-109 56t-59.5 106t-16.5 170.5zM338 330q0 -78 22 -101.5t97 -23.5q36 0 85.5 11.5 t73.5 25.5q-26 82 -26 190q-43 14 -129 14q-73 0 -98 -20.5t-25 -95.5zM840 664h290q-1 105 -31 140.5t-106 35.5q-77 0 -110 -37t-43 -139z" />
<glyph unicode="&#xe7;" horiz-adv-x="774" d="M76 530q0 156 29.5 264.5t86.5 169.5t130.5 87t171.5 26q68 0 142 -12t122 -33l-53 -266q-88 43 -191 43q-41 0 -67 -5t-50.5 -21t-37.5 -47t-21 -83t-8 -129q0 -91 10.5 -147.5t36 -86t56.5 -39t81 -9.5q103 0 191 47l53 -264q-49 -25 -123 -39.5t-141 -14.5 q-98 0 -171.5 27.5t-130.5 90t-86.5 173.5t-29.5 268zM293 -389l41 123q32 -19 100 -19q32 0 43.5 10t11.5 37q0 32 -29 42t-102 3l58 193h94v-80q88 0 130 -37.5t42 -124.5q0 -99 -51.5 -136.5t-181.5 -37.5q-95 0 -156 27z" />
<glyph unicode="&#xe8;" horiz-adv-x="911" d="M76 530q0 155 27 263t80.5 169.5t123 88t164.5 26.5q89 0 149.5 -15.5t110 -56.5t76 -113.5t37.5 -185.5t4 -274h-514q3 -119 45.5 -159t140.5 -40q46 0 117 10.5t115 24.5l39 -239q-62 -26 -147.5 -42t-156.5 -16q-93 0 -164.5 27.5t-128.5 90t-87.5 173.5t-30.5 268z M190 1427h259l200 -264h-211zM336 664h293q-3 105 -33.5 140.5t-106.5 35.5q-79 0 -110.5 -37.5t-42.5 -138.5z" />
<glyph unicode="&#xe9;" horiz-adv-x="911" d="M76 530q0 155 27 263t80.5 169.5t123 88t164.5 26.5q89 0 149.5 -15.5t110 -56.5t76 -113.5t37.5 -185.5t4 -274h-514q3 -119 45.5 -159t140.5 -40q46 0 117 10.5t115 24.5l39 -239q-62 -26 -147.5 -42t-156.5 -16q-93 0 -164.5 27.5t-128.5 90t-87.5 173.5t-30.5 268z M322 1163l200 264h258l-245 -264h-213zM336 664h293q-3 105 -33.5 140.5t-106.5 35.5q-79 0 -110.5 -37.5t-42.5 -138.5z" />
<glyph unicode="&#xea;" horiz-adv-x="911" d="M76 530q0 155 27 263t80.5 169.5t123 88t164.5 26.5q89 0 149.5 -15.5t110 -56.5t76 -113.5t37.5 -185.5t4 -274h-514q3 -119 45.5 -159t140.5 -40q46 0 117 10.5t115 24.5l39 -239q-62 -26 -147.5 -42t-156.5 -16q-93 0 -164.5 27.5t-128.5 90t-87.5 173.5t-30.5 268z M164 1163q34 44 100.5 132t100.5 132h239l207 -264h-219q-21 27 -59 79t-50 67q-5 -7 -44 -62.5t-60 -83.5h-215zM336 664h293q-3 105 -33.5 140.5t-106.5 35.5q-79 0 -110.5 -37.5t-42.5 -138.5z" />
<glyph unicode="&#xeb;" horiz-adv-x="911" d="M76 530q0 155 27 263t80.5 169.5t123 88t164.5 26.5q89 0 149.5 -15.5t110 -56.5t76 -113.5t37.5 -185.5t4 -274h-514q3 -119 45.5 -159t140.5 -40q46 0 117 10.5t115 24.5l39 -239q-62 -26 -147.5 -42t-156.5 -16q-93 0 -164.5 27.5t-128.5 90t-87.5 173.5t-30.5 268z M186 1290q0 82 23.5 106.5t89.5 24.5t89.5 -24.5t23.5 -106.5q0 -89 -23.5 -117t-89.5 -28t-89.5 28t-23.5 117zM336 664h293q-3 105 -33.5 140.5t-106.5 35.5q-79 0 -110.5 -37.5t-42.5 -138.5zM555 1290q0 82 23.5 106.5t91.5 24.5q64 0 87 -24.5t23 -106.5 q0 -89 -23 -117t-87 -28q-68 0 -91.5 27.5t-23.5 117.5z" />
<glyph unicode="&#xec;" horiz-adv-x="464" d="M-66 1427h259l200 -264h-211zM109 0v1049h251v-1049h-251z" />
<glyph unicode="&#xed;" horiz-adv-x="464" d="M66 1163l200 264h258l-245 -264h-213zM109 0v1049h251v-1049h-251z" />
<glyph unicode="&#xee;" horiz-adv-x="464" d="M-88 1163q34 44 100.5 132t100.5 132h239l207 -264h-219q-21 27 -59 79t-50 67q-19 -26 -53.5 -75t-50.5 -71h-215zM109 0v1049h251v-1049h-251z" />
<glyph unicode="&#xef;" horiz-adv-x="464" d="M-61 1290q0 82 23 106.5t87 24.5q67 0 91 -24.5t24 -106.5q0 -89 -24 -117t-91 -28q-64 0 -87 28t-23 117zM106 0v1049h254v-1049h-254zM307 1290q0 82 23 106.5t90 24.5q66 0 89 -24.5t23 -106.5q0 -89 -23.5 -117t-88.5 -28q-67 0 -90 27.5t-23 117.5z" />
<glyph unicode="&#xf0;" d="M78 453q0 125 20 206t70 134t130 75.5t204 22.5q62 0 102 -4q-35 84 -88 170l-110 -84l-95 151l115 82q-21 31 -162 221h324q44 -55 51 -65l88 68l92 -150l-82 -61q224 -361 224 -762q0 -147 -18.5 -237t-69.5 -149.5t-135 -82.5t-222 -23q-168 0 -261 45t-135 149.5 t-42 293.5zM352 442q0 -101 32.5 -138.5t131.5 -37.5q69 0 102 16t47.5 62t14.5 143q0 65 -8 117q-60 8 -135 8q-118 0 -151.5 -31.5t-33.5 -138.5z" />
<glyph unicode="&#xf1;" horiz-adv-x="978" d="M109 0v983q89 40 204 67t222 27q120 0 193.5 -45t113 -155.5t39.5 -296.5v-580h-252v555q0 145 -28.5 193.5t-119.5 48.5q-56 0 -121 -19v-778h-251zM180 1274q36 78 79 121t103 43q41 0 78 -15t59 -32.5t50 -32.5t53 -15q28 0 46 22.5t36 84.5l117 -119 q-25 -84 -77 -138t-126 -54q-43 0 -84 24t-77.5 48t-69.5 24q-24 0 -42 -20.5t-36 -73.5z" />
<glyph unicode="&#xf2;" horiz-adv-x="966" d="M76 530q0 159 25 266t78.5 168.5t125.5 87t176 25.5q106 0 179.5 -25.5t127 -87t78.5 -168.5t25 -266q0 -160 -25 -268.5t-78 -172.5t-127 -91t-180 -27q-105 0 -178 27t-125.5 91t-77 172.5t-24.5 268.5zM201 1427h258l200 -264h-210zM330 524q0 -133 14.5 -198 t44.5 -87t92 -22q64 0 95.5 22t46 87t14.5 198q0 104 -6.5 163.5t-26.5 92.5t-47 42t-76 9q-63 0 -92.5 -20t-44 -84.5t-14.5 -202.5z" />
<glyph unicode="&#xf3;" horiz-adv-x="966" d="M76 530q0 159 25 266t78.5 168.5t125.5 87t176 25.5q106 0 179.5 -25.5t127 -87t78.5 -168.5t25 -266q0 -160 -25 -268.5t-78 -172.5t-127 -91t-180 -27q-105 0 -178 27t-125.5 91t-77 172.5t-24.5 268.5zM309 1163l201 264h258l-246 -264h-213zM330 524 q0 -133 14.5 -198t44.5 -87t92 -22q64 0 95.5 22t46 87t14.5 198q0 104 -6.5 163.5t-26.5 92.5t-47 42t-76 9q-63 0 -92.5 -20t-44 -84.5t-14.5 -202.5z" />
<glyph unicode="&#xf4;" horiz-adv-x="966" d="M76 530q0 159 25 266t78.5 168.5t125.5 87t176 25.5q106 0 179.5 -25.5t127 -87t78.5 -168.5t25 -266q0 -160 -25 -268.5t-78 -172.5t-127 -91t-180 -27q-105 0 -178 27t-125.5 91t-77 172.5t-24.5 268.5zM156 1163q34 44 100 132t100 132h240l207 -264h-219 q-21 27 -59 79t-50 67q-5 -7 -44 -62.5t-60 -83.5h-215zM330 524q0 -133 14.5 -198t44.5 -87t92 -22q64 0 95.5 22t46 87t14.5 198q0 104 -6.5 163.5t-26.5 92.5t-47 42t-76 9q-63 0 -92.5 -20t-44 -84.5t-14.5 -202.5z" />
<glyph unicode="&#xf5;" horiz-adv-x="966" d="M76 530q0 159 25 266t78.5 168.5t125.5 87t176 25.5q106 0 179.5 -25.5t127 -87t78.5 -168.5t25 -266q0 -160 -25 -268.5t-78 -172.5t-127 -91t-180 -27q-105 0 -178 27t-125.5 91t-77 172.5t-24.5 268.5zM170 1274q75 164 182 164q41 0 78 -15t59 -32.5t50 -32.5t53 -15 q28 0 46 22.5t36 84.5l119 -119q-27 -85 -78.5 -138.5t-126.5 -53.5q-43 0 -84 24t-77.5 48t-68.5 24q-25 0 -43 -20.5t-36 -73.5zM330 524q0 -133 14.5 -198t44.5 -87t92 -22q64 0 95.5 22t46 87t14.5 198q0 104 -6.5 163.5t-26.5 92.5t-47 42t-76 9q-63 0 -92.5 -20 t-44 -84.5t-14.5 -202.5z" />
<glyph unicode="&#xf6;" horiz-adv-x="966" d="M76 530q0 159 25 266t78.5 168.5t125.5 87t176 25.5q106 0 179.5 -25.5t127 -87t78.5 -168.5t25 -266q0 -160 -25 -268.5t-78 -172.5t-127 -91t-180 -27q-105 0 -178 27t-125.5 91t-77 172.5t-24.5 268.5zM186 1290q0 82 22.5 106.5t88.5 24.5q67 0 90 -24.5t23 -106.5 q0 -90 -23 -117.5t-90 -27.5q-65 0 -88 27.5t-23 117.5zM330 524q0 -133 14.5 -198t44.5 -87t92 -22q64 0 95.5 22t46 87t14.5 198q0 104 -6.5 163.5t-26.5 92.5t-47 42t-76 9q-63 0 -92.5 -20t-44 -84.5t-14.5 -202.5zM555 1290q0 83 22.5 107t90.5 24q65 0 87.5 -24.5 t22.5 -106.5q0 -90 -22.5 -117.5t-87.5 -27.5q-68 0 -90.5 27.5t-22.5 117.5z" />
<glyph unicode="&#xf7;" horiz-adv-x="923" d="M59 594v301h803v-301h-803zM307 309q0 104 31 135t119 31q89 0 119 -31t30 -135q0 -114 -30 -148t-119 -34q-60 0 -90 13t-45 52t-15 117zM307 1192q0 73 15 108.5t45 47.5t90 12q89 0 119 -31t30 -137q0 -112 -30 -146t-119 -34q-88 0 -119 34t-31 146z" />
<glyph unicode="&#xf8;" horiz-adv-x="968" d="M4 0l123 174q-53 127 -53 354q0 159 25 266t78.5 169t127 88t178.5 26q155 0 240 -57l20 27h224l-125 -175q51 -122 51 -344q0 -160 -25 -268.5t-78.5 -171.5t-127 -90t-179.5 -27q-145 0 -237 56l-19 -27h-223zM328 596q0 -72 6 -133l239 346q-32 22 -90 22 q-59 0 -90 -15.5t-48 -67t-17 -152.5zM393 236q31 -19 90 -19q92 0 122 65t30 212q0 55 -2 84z" />
<glyph unicode="&#xf9;" horiz-adv-x="978" d="M102 467v582h250v-557q0 -144 28.5 -193t119.5 -49q48 0 123 20v779h247v-986q-88 -39 -203.5 -66.5t-220.5 -27.5q-120 0 -193.5 46t-112 156t-38.5 296zM199 1427h260l198 -264h-211z" />
<glyph unicode="&#xfa;" horiz-adv-x="978" d="M102 467v582h250v-557q0 -144 28.5 -193t119.5 -49q48 0 123 20v779h247v-986q-88 -39 -203.5 -66.5t-220.5 -27.5q-120 0 -193.5 46t-112 156t-38.5 296zM322 1163l202 264h256l-245 -264h-213z" />
<glyph unicode="&#xfb;" horiz-adv-x="978" d="M102 467v582h250v-557q0 -144 28.5 -193t119.5 -49q48 0 123 20v779h247v-986q-88 -39 -203.5 -66.5t-220.5 -27.5q-120 0 -193.5 46t-112 156t-38.5 296zM172 1163q165 220 199 264h241l207 -264h-221q-42 56 -106 146q-20 -27 -56 -76.5t-51 -69.5h-213z" />
<glyph unicode="&#xfc;" horiz-adv-x="978" d="M102 467v582h250v-557q0 -144 28.5 -193t119.5 -49q48 0 123 20v779h247v-986q-88 -39 -203.5 -66.5t-220.5 -27.5q-120 0 -193.5 46t-112 156t-38.5 296zM190 1290q0 82 23.5 106.5t89.5 24.5t89.5 -24.5t23.5 -106.5q0 -89 -23.5 -117t-89.5 -28t-89.5 28t-23.5 117z M559 1290q0 82 23 106.5t90 24.5q66 0 89 -24.5t23 -106.5q0 -89 -23.5 -117t-88.5 -28q-67 0 -90 27.5t-23 117.5z" />
<glyph unicode="&#xfd;" horiz-adv-x="837" d="M-18 1047h254q92 -297 184 -730q122 443 178 730h250q-132 -568 -320 -1110q-10 -29 -36 -104.5t-45 -128t-37 -97.5h-277q62 134 137 342q-117 529 -288 1098zM279 1163l200 264h258l-245 -264h-213z" />
<glyph unicode="&#xfe;" horiz-adv-x="976" d="M109 -393v1833h251v-375q62 12 129 12q148 0 234.5 -48.5t131 -170t44.5 -334.5q0 -125 -17 -220.5t-47.5 -158t-75.5 -102t-97.5 -56t-116.5 -16.5q-97 0 -185 47v-411h-251zM360 309q0 -35 36.5 -57.5t92.5 -22.5q91 0 124.5 60.5t33.5 226.5q0 127 -15.5 191t-47.5 86 t-95 22q-76 0 -129 -24v-482z" />
<glyph unicode="&#xff;" horiz-adv-x="837" d="M-18 1047h254q92 -297 184 -730q122 443 178 730h250q-132 -568 -320 -1110q-10 -29 -36 -104.5t-45 -128t-37 -97.5h-277q62 134 137 342q-117 529 -288 1098zM131 1290q0 82 22.5 106.5t88.5 24.5q67 0 89.5 -24.5t22.5 -106.5q0 -90 -23 -117.5t-89 -27.5 q-65 0 -88 27.5t-23 117.5zM500 1290q0 82 22.5 106.5t89.5 24.5q66 0 88.5 -24.5t22.5 -106.5q0 -90 -23 -117.5t-88 -27.5q-66 0 -89 27.5t-23 117.5z" />
<glyph unicode="&#x152;" horiz-adv-x="1789" d="M80 729q0 173 23 299t66 209.5t112.5 133.5t154 70.5t199.5 20.5q146 0 244 -35h872v-288h-618q42 -95 51 -256h323v-283h-321q-9 -193 -60 -311h625v-289h-895q-96 -29 -221 -29q-143 0 -242.5 36t-172 122t-106.5 234t-34 366zM362 725q0 -104 4 -171.5t16 -121 t29.5 -82.5t50.5 -48t72 -24.5t101 -5.5t101 5.5t72 24.5t51 48t30 82.5t16 121.5t4 171q0 102 -4 168t-16.5 117t-29.5 78t-51 44.5t-72 22t-101 4.5t-101 -4.5t-72 -22t-51 -44.5t-29.5 -78.5t-16 -117t-3.5 -167.5z" />
<glyph unicode="&#x153;" horiz-adv-x="1466" d="M76 530q0 159 25 266t78.5 168.5t125.5 87t176 25.5q101 0 170 -24.5t113 -81.5q82 106 262 106q89 0 149.5 -15.5t110 -56.5t76 -113.5t37.5 -185.5t4 -274h-512q1 -119 43.5 -159t140.5 -40q47 0 117.5 10t116.5 25l37 -239q-62 -26 -147 -42t-155 -16q-94 0 -161 27 t-115 90q-79 -117 -287 -117q-105 0 -178 27t-125.5 91t-77 172.5t-24.5 268.5zM330 524q0 -133 14.5 -198t44.5 -87t92 -22q64 0 95.5 22t46 87t14.5 198q0 104 -6.5 163.5t-26.5 92.5t-47 42t-76 9q-63 0 -92.5 -20t-44 -84.5t-14.5 -202.5zM891 664h293 q-3 105 -33.5 140.5t-106.5 35.5q-77 0 -109 -37t-44 -139z" />
<glyph unicode="&#x178;" horiz-adv-x="1069" d="M-90 1427h350q150 -241 293 -505q199 347 272 505h326q-202 -391 -469 -845v-582h-264v580q-343 600 -508 847zM256 1657q0 82 22.5 105.5t88.5 23.5q67 0 89.5 -23.5t22.5 -105.5q0 -91 -22.5 -118.5t-89.5 -27.5q-65 0 -88 27.5t-23 118.5zM625 1657q0 82 22.5 105.5 t89.5 23.5q66 0 88.5 -23.5t22.5 -105.5q0 -91 -23 -118.5t-88 -27.5q-67 0 -89.5 27.5t-22.5 118.5z" />
<glyph unicode="&#x2c6;" horiz-adv-x="1067" d="M231 1163q34 44 100.5 132t100.5 132h240l207 -264h-220q-21 26 -57.5 76.5t-50.5 69.5q-20 -26 -54.5 -75t-50.5 -71h-215z" />
<glyph unicode="&#x2dc;" horiz-adv-x="1161" d="M233 1274q36 78 79.5 121t103.5 43q41 0 77.5 -15t59 -32.5t50 -32.5t52.5 -15q28 0 46 22.5t36 84.5l117 -119q-25 -84 -77 -138t-126 -54q-43 0 -84 24t-77.5 48t-69.5 24q-24 0 -42 -20.5t-36 -73.5z" />
<glyph unicode="&#x2000;" horiz-adv-x="920" />
<glyph unicode="&#x2001;" horiz-adv-x="1841" />
<glyph unicode="&#x2002;" horiz-adv-x="920" />
<glyph unicode="&#x2003;" horiz-adv-x="1841" />
<glyph unicode="&#x2004;" horiz-adv-x="613" />
<glyph unicode="&#x2005;" horiz-adv-x="460" />
<glyph unicode="&#x2006;" horiz-adv-x="306" />
<glyph unicode="&#x2007;" horiz-adv-x="306" />
<glyph unicode="&#x2008;" horiz-adv-x="230" />
<glyph unicode="&#x2009;" horiz-adv-x="368" />
<glyph unicode="&#x200a;" horiz-adv-x="102" />
<glyph unicode="&#x2010;" horiz-adv-x="520" d="M45 432v301h430v-301h-430z" />
<glyph unicode="&#x2011;" horiz-adv-x="520" d="M45 432v301h430v-301h-430z" />
<glyph unicode="&#x2012;" horiz-adv-x="520" d="M45 432v301h430v-301h-430z" />
<glyph unicode="&#x2013;" horiz-adv-x="978" d="M78 432v301h823v-301h-823z" />
<glyph unicode="&#x2014;" horiz-adv-x="1441" d="M78 432v301h1286v-301h-1286z" />
<glyph unicode="&#x2018;" horiz-adv-x="450" d="M39 1034l178 541h197l-127 -541h-248z" />
<glyph unicode="&#x2019;" horiz-adv-x="448" d="M37 1018l127 543h248l-179 -543h-196z" />
<glyph unicode="&#x201a;" horiz-adv-x="425" d="M25 -326l127 541h247l-178 -541h-196z" />
<glyph unicode="&#x201c;" horiz-adv-x="794" d="M39 1034l178 541h197l-127 -541h-248zM383 1034l178 541h197l-127 -541h-248z" />
<glyph unicode="&#x201d;" horiz-adv-x="794" d="M39 1022l127 541h248l-178 -541h-197zM383 1022l127 541h248l-178 -541h-197z" />
<glyph unicode="&#x201e;" horiz-adv-x="794" d="M39 -342l127 543h248l-178 -543h-197zM383 -342l127 543h248l-178 -543h-197z" />
<glyph unicode="&#x2022;" horiz-adv-x="966" d="M76 674q0 159 25 266t78.5 168.5t125.5 87t176 25.5q106 0 179.5 -25.5t127 -87t78.5 -168.5t25 -266q0 -160 -25 -268.5t-78 -172.5t-127 -91t-180 -27q-105 0 -178 27t-125.5 91t-77 172.5t-24.5 268.5z" />
<glyph unicode="&#x2026;" horiz-adv-x="1812" d="M180 168q0 104 31 136t119 32q89 0 120 -32t31 -136q0 -78 -14.5 -117t-45 -52t-91.5 -13q-60 0 -90 13t-45 52t-15 117zM754 168q0 104 30.5 136t118.5 32q89 0 120.5 -32t31.5 -136q0 -113 -31 -147.5t-121 -34.5q-60 0 -90 13t-44.5 52t-14.5 117zM1331 168 q0 104 30.5 136t117.5 32q89 0 120 -32t31 -136q0 -78 -14.5 -117t-45 -52t-91.5 -13q-87 0 -117.5 34.5t-30.5 147.5z" />
<glyph unicode="&#x202f;" horiz-adv-x="368" />
<glyph unicode="&#x2039;" horiz-adv-x="661" d="M37 651l444 586l144 -180l-256 -400l256 -407l-142 -184z" />
<glyph unicode="&#x203a;" horiz-adv-x="661" d="M39 248l256 399l-256 408l141 184l445 -588l-443 -583z" />
<glyph unicode="&#x205f;" horiz-adv-x="460" />
<glyph unicode="&#x20ac;" horiz-adv-x="964" d="M80 727q0 175 21.5 301t62.5 210t108.5 133.5t150.5 70t198 20.5q81 0 173.5 -14t157.5 -37l-51 -291q-39 18 -103.5 28.5t-121.5 10.5q-128 0 -192 -31.5t-91 -130.5h346v-202h-377v-72v-70h377v-200h-346q28 -107 91.5 -142t191.5 -35q55 0 119.5 11t105.5 28l51 -297 q-146 -47 -331 -47q-142 0 -240 36.5t-167.5 123t-101.5 233t-32 363.5z" />
<glyph unicode="&#x2122;" horiz-adv-x="1429" d="M6 1237v190h557v-190h-192v-555h-172v555h-193zM625 682v745h217l149 -444l142 444h210v-745h-165v457l-140 -414h-118l-132 414v-457h-163z" />
</font>
</defs>
</svg>
